<svg width="777" height="419" viewBox="0 0 777 419" fill="none" xmlns="http://www.w3.org/2000/svg">
<ellipse rx="232.804" ry="89.2752" transform="matrix(0.999872 -0.0159927 0.0193291 0.999813 381.5 297.018)" fill="#563916"/>
<path d="M382.639 8.23695L447.43 192.53L301.413 192.056L382.639 8.23695Z" fill="#2E8B57"/>
<path d="M290.395 59.199L355.229 243.495L209.212 243.019L290.395 59.199Z" fill="#2E8B57"/>
<rect x="311" y="243" width="24" height="86" fill="#986D45"/>
<rect x="447" y="228" width="28" height="86" fill="#986D45"/>
<path d="M453.251 22.3932L505.68 198.756L379.2 197.59L453.251 22.3932Z" fill="#98C7AC"/>
<path d="M218 228H244V314H218V228Z" fill="#986D45"/>
<path d="M427.081 51.1611L479.509 227.524L353.029 226.358L427.081 51.1611Z" fill="#8AD8AC"/>
<rect x="385" y="271" width="26" height="86" fill="#986D45"/>
<path d="M380.494 61.159L445.327 245.455L299.311 244.979L380.494 61.159Z" fill="#1E623C"/>
<path d="M491.865 51.7937L544.294 228.156L417.814 226.99L491.865 51.7937Z" fill="#B2EBCB"/>
<path d="M317 38.7206C317.371 37.8425 318.619 37.854 318.882 38.738L370.132 211.136C370.326 211.788 369.801 212.469 369.109 212.463L245.472 211.323C244.78 211.317 244.339 210.627 244.613 209.979L317 38.7206Z" fill="#B2EBCB"/>
<path d="M324.718 76.8393L389.551 261.135L243.535 260.659L324.718 76.8393Z" fill="#2E8B57"/>
<path d="M324.718 76.8393L389.551 261.135L243.535 260.659L324.718 76.8393Z" fill="#2E8B57"/>
<path d="M470.593 61.159L535.426 245.455L389.41 244.979L470.593 61.159Z" fill="#27764A"/>
<rect x="508" y="261" width="28" height="86" fill="#986D45"/>
<rect x="259" y="267" width="26" height="86" fill="#986D45"/>
<path d="M238.728 75.314L291.157 251.677L164.677 250.511L238.728 75.314Z" fill="#B2EBCB"/>
<path d="M275.377 119.96L340.211 304.256L194.194 303.78L275.377 119.96Z" fill="#27764A"/>
<path d="M404.091 127.8L468.924 312.096L322.908 311.62L404.091 127.8Z" fill="#2E8B57"/>
<path d="M526.369 112.12L591.203 296.416L445.186 295.939L526.369 112.12Z" fill="#2E8B57"/>
</svg>
