<svg width="387" height="137" viewBox="0 0 387 137" fill="none" xmlns="http://www.w3.org/2000/svg">
<path d="M292.519 6.29736L324.259 95.6821L258 95.6821L292.519 6.29736Z" fill="#B2EBCB"/>
<path d="M69.984 59.728C69.984 62.656 69.312 65.344 67.968 67.792C66.624 70.192 64.56 72.136 61.776 73.624C58.992 75.112 55.536 75.856 51.408 75.856H43.776V94H31.464V43.456H51.408C55.44 43.456 58.848 44.152 61.632 45.544C64.416 46.936 66.504 48.856 67.896 51.304C69.288 53.752 69.984 56.56 69.984 59.728ZM50.472 66.064C52.824 66.064 54.576 65.512 55.728 64.408C56.88 63.304 57.456 61.744 57.456 59.728C57.456 57.712 56.88 56.152 55.728 55.048C54.576 53.944 52.824 53.392 50.472 53.392H43.776V66.064H50.472ZM88.7057 40.72V94H76.3937V40.72H88.7057ZM95.1801 73.84C95.1801 69.712 95.9481 66.088 97.4841 62.968C99.0681 59.848 101.204 57.448 103.892 55.768C106.58 54.088 109.58 53.248 112.892 53.248C115.724 53.248 118.196 53.824 120.308 54.976C122.468 56.128 124.124 57.64 125.276 59.512V53.824H137.588V94H125.276V88.312C124.076 90.184 122.396 91.696 120.236 92.848C118.124 94 115.652 94.576 112.82 94.576C109.556 94.576 106.58 93.736 103.892 92.056C101.204 90.328 99.0681 87.904 97.4841 84.784C95.9481 81.616 95.1801 77.968 95.1801 73.84ZM125.276 73.912C125.276 70.84 124.412 68.416 122.684 66.64C121.004 64.864 118.94 63.976 116.492 63.976C114.044 63.976 111.956 64.864 110.228 66.64C108.548 68.368 107.708 70.768 107.708 73.84C107.708 76.912 108.548 79.36 110.228 81.184C111.956 82.96 114.044 83.848 116.492 83.848C118.94 83.848 121.004 82.96 122.684 81.184C124.412 79.408 125.276 76.984 125.276 73.912ZM170.975 53.392C175.679 53.392 179.423 54.928 182.207 58C185.039 61.024 186.455 65.2 186.455 70.528V94H174.215V72.184C174.215 69.496 173.519 67.408 172.127 65.92C170.735 64.432 168.863 63.688 166.511 63.688C164.159 63.688 162.287 64.432 160.895 65.92C159.503 67.408 158.807 69.496 158.807 72.184V94H146.495V53.824H158.807V59.152C160.055 57.376 161.735 55.984 163.847 54.976C165.959 53.92 168.335 53.392 170.975 53.392Z" fill="#2E8B57"/>
<path d="M217.403 83.56V94H211.139C206.675 94 203.195 92.92 200.699 90.76C198.203 88.552 196.955 84.976 196.955 80.032V64.048H192.059V53.824H196.955V44.032H209.267V53.824H217.331V64.048H209.267V80.176C209.267 81.376 209.555 82.24 210.131 82.768C210.707 83.296 211.667 83.56 213.011 83.56H217.403ZM236.573 60.52C238.013 58.312 239.813 56.584 241.973 55.336C244.133 54.04 246.533 53.392 249.173 53.392V66.424H245.789C242.717 66.424 240.413 67.096 238.877 68.44C237.341 69.736 236.573 72.04 236.573 75.352V94H224.261V53.824H236.573V60.52Z" fill="#B2EBCB"/>
<path d="M309.697 8.22476L341.5 102L274.047 102.017L309.697 8.22476Z" fill="#2E8B57"/>
</svg>
